<?xml version="1.0" encoding="utf-8"?>
<!-- Uploaded to: SVG Repo, www.svgrepo.com, Generator: SVG Repo Mixer Tools -->
<svg width="800px" height="800px" viewBox="-56.15 0 329.288 329.288" xmlns="http://www.w3.org/2000/svg"><defs><style>.a{fill:#ffffff;}.b{fill:#85807f;}.c{fill:#211715;}.d{fill:#febe69;}</style></defs><path class="a" d="M153.937,79.711a7.344,7.344,0,0,1,5.308-1.943,6.813,6.813,0,0,1,6.12,3.4c2.08,3.607,1.992,10.252.6,14.364-.989,2.912-2.608,7.366-6.512,10.561a7.868,7.868,0,0,1-6.917,1.639A56.506,56.506,0,0,1,142,127.992a39.593,39.593,0,0,1-11.311,9.857v7.282a11.142,11.142,0,0,0,.475,3.943,9.579,9.579,0,0,0,2.876,4.186c2.923,2.355,5.927,3.48,9.626,4.871l2.414.953c-8.239,6.787-23.231,12.259-38.856,12.305-15.52-.046-30.415-5.444-38.69-12.169,1.341-.526,2.77-1.089,2.77-1.089,3.7-1.391,6.7-2.516,9.626-4.871a9.579,9.579,0,0,0,2.876-4.186,11.142,11.142,0,0,0,.475-3.943s0-2.474,0-6.183a43.9,43.9,0,0,1-12.589-10.956,56.485,56.485,0,0,1-10.513-20.2,7.945,7.945,0,0,1-6.681-1.7c-3.9-3.2-5.523-7.649-6.511-10.561-1.4-4.112-1.484-10.757.6-14.364a6.815,6.815,0,0,1,6.12-3.4,7.343,7.343,0,0,1,5.308,1.943S56.819,34.3,106.973,34.3C153.17,34.3,153.937,79.711,153.937,79.711Z"/><path class="a" d="M173.108,168.964c-1.634-.844-3.246-1.587-4.844-2.262-4.825-2.042-15.03-6.039-21.734-7.956l-1.11.868c-8.365,6.54-22.98,11.73-38.2,11.775-15.747-.047-30.85-5.6-39.045-12.465-10.432,4.087-22.295,7.543-32.446,13.98-4.7,2.982-10.6,7.8-13.651,12.508a75.808,75.808,0,0,0-8.9,21.16c-1.817,7.695-2.663,11.977-4.369,22.231A488.805,488.805,0,0,0,2.537,285c-.492,8,.279,16.588,3.282,23.99s10.544,14.391,18.047,16.692a24.31,24.31,0,0,0,17.756-1.043l.021.583a4.354,4.354,0,0,0,.12,1.1,1.281,1.281,0,0,0,1.13.56c4.87.02,117.71-.1,127.96-.1a1.844,1.844,0,0,0,1.11-.39,1.875,1.875,0,0,0,.26-.86c.08-2.86.08-5.43.08-8.33a56.655,56.655,0,0,0,7.247,2.651c6.2,1.725,14.964,2.455,20.905-.542,11.841-5.974,14.117-18.456,14.117-27.658a178.467,178.467,0,0,0-1-21.1c-2.114-17.758-6.89-48.392-10.695-60.738-4.073-13.213-7.975-24.048-16.69-31.8A62.66,62.66,0,0,0,173.108,168.964Z"/><path class="b" d="M160.96,41.908c-2.326-7.11-6.137-13.395-11.676-17.83l-6.243-6.546C135.959,8.194,124.446,3.132,108,2.41c-21.4-.724-37.191,8.852-44.182,17.768l1.434,1.482c-14.512,12.6-19.794,35.127-12.757,56.446a8.979,8.979,0,0,1,2.207-.338,7.343,7.343,0,0,1,5.308,1.943l7.506-6.3c5.633-6.277,15.576-15.738,22.553-19.4.818-.429,1.869.152,2.2,1.519a8.993,8.993,0,0,1,.214,3.273,1.7,1.7,0,0,0,2.429,1.83c4.981-2.767,13.856-8.336,20.149-10.988l9.332,1.147a30.138,30.138,0,0,1,8.595,5.405c5.664,4.874,11.1,11.561,13.5,17.613l7.449,5.9a7.344,7.344,0,0,1,5.308-1.943,8.814,8.814,0,0,1,2.479.423C164.606,66.789,164.686,53.291,160.96,41.908Z"/><path class="c" d="M67.331,161.311c8.448,6.543,19.078,10.2,29.58,11.687a72.867,72.867,0,0,0,35.338-3.684,55.2,55.2,0,0,0,14.868-8,2.412,2.412,0,0,0,0-3.394,2.461,2.461,0,0,0-3.394,0c-7.677,5.945-17.752,9.067-27.242,10.421a68.085,68.085,0,0,1-32.24-3.375,48.619,48.619,0,0,1-13.516-7.046,2.48,2.48,0,0,0-3.394,0,2.415,2.415,0,0,0,0,3.394Z"/><path class="c" d="M128.289,139.1v4.849a17.162,17.162,0,0,0,.561,5.763c1.245,3.516,3.843,5.9,7.047,7.674,3.816,2.11,8.13,3.454,12.188,5.054a2.416,2.416,0,0,0,2.952-1.676,2.456,2.456,0,0,0-1.676-2.952c-3.38-1.333-6.933-2.482-10.175-4.115-2.474-1.245-4.962-2.816-5.826-5.606a16.79,16.79,0,0,1-.271-4.876V139.1c0-3.089-4.8-3.094-4.8,0Z"/><path class="c" d="M81.881,140.19v4.388a10,10,0,0,1-.507,4.135c-1.132,2.574-3.553,4.008-6.034,5.2-3.131,1.508-6.507,2.622-9.742,3.9a2.472,2.472,0,0,0-1.677,2.952,2.417,2.417,0,0,0,2.953,1.676,117.339,117.339,0,0,0,11.738-4.806c3.1-1.626,5.748-3.789,7.151-7.061,1.379-3.215.918-6.959.918-10.383,0-3.089-4.8-3.094-4.8,0Z"/><path class="c" d="M31.645,280.833c5.643-4.181,11.552-7.991,17.2-12.168a2.474,2.474,0,0,0,.862-3.284,2.418,2.418,0,0,0-3.284-.861c-5.646,4.177-11.554,7.988-17.2,12.168a2.474,2.474,0,0,0-.861,3.284,2.416,2.416,0,0,0,3.283.861Z"/><path class="c" d="M34.71,213.991A303.832,303.832,0,0,0,43.305,247.4c.971,2.916,5.608,1.666,4.628-1.276a303.832,303.832,0,0,1-8.595-33.412c-.636-3.021-5.264-1.742-4.628,1.276Z"/><path class="c" d="M52.058,315.567c-5.883,4.172-12.4,8.678-19.879,8.908-7.6.233-14.486-3.552-19.475-9.1-5.435-6.047-7.345-14.231-7.8-22.168a104.881,104.881,0,0,1,.339-13.013q.422-6.279.958-12.549c1.2-13.814,3.1-27.527,5.422-41.195,1.124-6.625,2.375-13.233,3.992-19.759a63.5,63.5,0,0,1,8.95-20.681,38.653,38.653,0,0,1,8.195-8.108,63.8,63.8,0,0,1,10.254-6.357c7.3-3.693,15.071-6.263,22.711-9.124,1.846-.692,3.685-1.4,5.508-2.153a2.478,2.478,0,0,0,1.676-2.952,2.415,2.415,0,0,0-2.952-1.677C54.2,162.12,37.057,166.316,24.582,178.7c-5.848,5.8-9.345,13.656-11.989,21.351a137.049,137.049,0,0,0-4.739,20.213C5.234,234.781,3.1,249.4,1.723,264.1Q1.141,270.312.7,276.537c-.329,4.575-.754,9.174-.694,13.765.11,8.576,1.589,18,6.657,25.145,4.786,6.744,11.986,12.063,20.257,13.426C35,330.2,42.391,327.556,49.177,323.3c1.807-1.136,3.563-2.35,5.3-3.585a2.465,2.465,0,0,0,.861-3.283,2.42,2.42,0,0,0-3.284-.861Z"/><path class="c" d="M65.514,21.875C71.8,13.93,81.379,8.956,91.092,6.53a61.829,61.829,0,0,1,19.881-1.538,53.9,53.9,0,0,1,16.847,3.82,32.56,32.56,0,0,1,13.149,9.931,2.479,2.479,0,0,0,3.283.861,2.416,2.416,0,0,0,.861-3.284A37.048,37.048,0,0,0,132.624,5.793,54.02,54.02,0,0,0,114.634.57C101.105-1.161,86.982,1,75.045,7.775A44.206,44.206,0,0,0,62.12,18.481a2.477,2.477,0,0,0,0,3.394,2.417,2.417,0,0,0,3.394,0Z"/><path class="c" d="M54.727,77.217c-4.722-14.673-3.94-31.384,4.361-44.659a41.377,41.377,0,0,1,7.86-9.2c2.329-2.039-1.078-5.422-3.394-3.394C51.215,30.768,45.9,47.8,47.2,63.863a64.879,64.879,0,0,0,2.9,14.631c.943,2.928,5.579,1.676,4.629-1.277Z"/><path class="c" d="M147.587,25.776c11.449,9.269,14.525,25.342,13.721,39.342a67.091,67.091,0,0,1-1.833,12.173c-.736,3,3.892,4.28,4.629,1.276,3.708-15.1,3.122-32.818-4.914-46.5a35.669,35.669,0,0,0-8.209-9.686,2.472,2.472,0,0,0-3.394,0,2.419,2.419,0,0,0,0,3.395Z"/><path class="c" d="M57.941,104.785A59.617,59.617,0,0,0,66.233,124.6c4.219,6.42,9.774,12.454,16.527,16.248a32.686,32.686,0,0,0,11.056,3.835,2.477,2.477,0,0,0,2.952-1.676,2.419,2.419,0,0,0-1.676-2.953c-13.871-2.122-24.172-14.263-29.394-26.6a57.11,57.11,0,0,1-3.129-9.942c-.665-3.015-5.293-1.739-4.628,1.276Z"/><path class="c" d="M151.122,103.509a54.756,54.756,0,0,1-10.231,22.057,41.293,41.293,0,0,1-8.744,8.542,38.413,38.413,0,0,1-10.049,4.821c-2.925.953-1.673,5.59,1.276,4.628a41.639,41.639,0,0,0,16.737-9.907,57.64,57.64,0,0,0,12.541-19,59.2,59.2,0,0,0,3.1-9.87c.664-3.01-3.962-4.3-4.628-1.276Z"/><path class="c" d="M98.25,119.1a19.146,19.146,0,0,0,9.22,2.135,15,15,0,0,0,9.305-2.745,2.413,2.413,0,0,0,0-3.394,2.461,2.461,0,0,0-3.394,0c.728-.568.164-.134-.024-.014s-.375.228-.57.33c-.1.052-.2.1-.305.152-.389.2.1-.043.1-.032a4.975,4.975,0,0,1-.786.286,13.933,13.933,0,0,1-2.2.5c.355-.053-.064,0-.208.018q-.324.031-.648.053c-.521.034-1.043.047-1.564.044-.467,0-.934-.019-1.4-.051-.214-.014-.428-.031-.641-.053-.025,0-.8-.111-.309-.033a15.873,15.873,0,0,1-2.055-.457c-.288-.086-.568-.189-.852-.286-.613-.21.354.183-.2-.078-.353-.166-.7-.339-1.045-.521a2.453,2.453,0,0,0-3.284.861,2.426,2.426,0,0,0,.861,3.283Z"/><path class="c" d="M106.248,97.384a43.429,43.429,0,0,1,1.017,4.657l-.085-.638a2.823,2.823,0,0,1,.017.643l.086-.638a1.506,1.506,0,0,1-.071.289l.242-.573a1.2,1.2,0,0,1-.1.186l.375-.486a.98.98,0,0,1-.152.15l.486-.375a3.022,3.022,0,0,1-.369.195l.573-.242a2.647,2.647,0,0,1-.621.181l.638-.085a2.535,2.535,0,0,1-.584,0l.638.085c-.22-.03-.436-.084-.656-.113a1.812,1.812,0,0,0-.957-.043,1.774,1.774,0,0,0-.892.285,2.4,2.4,0,0,0-.861,3.283,2.3,2.3,0,0,0,1.434,1.1c.5.068.989.195,1.5.218a4.8,4.8,0,0,0,2.211-.526,3.191,3.191,0,0,0,1.769-2.1,5.27,5.27,0,0,0-.022-2.267c-.253-1.5-.6-2.987-.986-4.459a2.4,2.4,0,0,0-4.628,1.276Z"/><path class="c" d="M81.635,84.193c-.777,2.527-.27,8.341,4.517,8.836,6.329-.038,6.665-7.067,4.535-10.372C88.943,79.951,83.814,78.826,81.635,84.193Z"/><path class="c" d="M132.311,84.193c.778,2.527.271,8.341-4.517,8.836-6.328-.039-6.665-7.067-4.535-10.372C125,79.951,130.132,78.826,132.311,84.193Z"/><path class="c" d="M61.706,78.014a10.387,10.387,0,0,0-11.434-1.6A10.037,10.037,0,0,0,45.18,83.38a26.259,26.259,0,0,0,4.041,20.413c2.862,4.151,6.916,7.13,12.154,6.415a2.415,2.415,0,0,0,1.677-2.952,2.465,2.465,0,0,0-2.953-1.677c-3.59.491-6.4-3.365-7.878-6.084a22.615,22.615,0,0,1-2.777-8.9,19.666,19.666,0,0,1,.214-5.258,11.93,11.93,0,0,1,.583-2.141,6.723,6.723,0,0,1,.5-.961c.036-.058.411-.6.246-.387a4.8,4.8,0,0,1,2.937-1.613,5.232,5.232,0,0,1,4.391,1.172C60.6,83.476,64,80.092,61.706,78.014Z"/><path class="c" d="M155.635,81.408a5.32,5.32,0,0,1,7.388.519c-.325-.4.133.224.185.309a6.723,6.723,0,0,1,.5.961,11.642,11.642,0,0,1,.549,1.968A19.539,19.539,0,0,1,164.5,90.6a22.615,22.615,0,0,1-2.694,8.743c-1.471,2.766-4.313,6.739-7.962,6.24a2.483,2.483,0,0,0-2.952,1.677,2.416,2.416,0,0,0,1.676,2.952c8.538,1.166,13.5-7.155,15.753-14.187a24.781,24.781,0,0,0,.717-11.256,11.233,11.233,0,0,0-4.359-7.772,10.291,10.291,0,0,0-12.442,1.021c-2.3,2.077,1.108,5.463,3.395,3.394Z"/><path class="c" d="M123.181,52.863a37.837,37.837,0,0,1,12.131,8.842c3.549,3.69,6.923,7.958,8.862,12.742a2.476,2.476,0,0,0,2.952,1.676,2.415,2.415,0,0,0,1.676-2.952A47.386,47.386,0,0,0,138.984,58.6a41.644,41.644,0,0,0-13.38-9.884,2.479,2.479,0,0,0-3.284.861,2.419,2.419,0,0,0,.861,3.284Z"/><path class="c" d="M69.212,75.105C74.808,68.889,81,62.793,87.95,58.1c.751-.507,1.516-1,2.3-1.449a3.857,3.857,0,0,0,.683-.419,7.632,7.632,0,0,1-.964-.175c-.084.073.113.739.079.539a19.089,19.089,0,0,1,.025,2.531,4.262,4.262,0,0,0,1.8,3.363c2.056,1.429,4.018.361,5.909-.726,1.8-1.031,3.579-2.085,5.37-3.126a120.424,120.424,0,0,1,13.119-6.921,2.414,2.414,0,0,0,.861-3.284,2.463,2.463,0,0,0-3.283-.861,110.557,110.557,0,0,0-11.769,6.14c-1.918,1.1-3.825,2.23-5.74,3.341-.716.415-1.433.829-2.154,1.235a3.523,3.523,0,0,0-.486.272c.019-.092.591-.176.817-.049l.282.26c.056.412.082.476.078.194a2.639,2.639,0,0,0,.057-.807c.1-2.313-.431-5.2-2.717-6.3-2.083-1-4.006.364-5.726,1.462a81.01,81.01,0,0,0-10.341,8.1A136.275,136.275,0,0,0,65.818,71.711c-2.062,2.29,1.322,5.7,3.394,3.394Z"/><path class="c" d="M39.243,325.223c.069,1.39.276,2.6,1.532,3.427a4.16,4.16,0,0,0,2.216.633c.227.009.457,0,.685,0h2.61q4.7,0,9.409,0,15.417-.009,30.832-.024l37.088-.034,32.063-.029,10.654-.009,3.28,0c.365,0,.734.014,1.1,0a3.747,3.747,0,0,0,3.919-3.887c.159-2.685.073-5.4.073-8.093,0-3.089-4.8-3.094-4.8,0,0,1.318,0,2.635-.008,3.953q-.006.909-.019,1.819a9.165,9.165,0,0,0-.04,2.084l-.013.474.858-1.135c-.012-.376.264.073.126-.015-.046-.029-.169.014-.224,0a2.331,2.331,0,0,0-.494,0l-2.933,0-9.605.007-30.087.028-35.928.033q-15.73.014-31.46.025-8.329.006-16.66.006a2.232,2.232,0,0,0-.306,0c-.422.061-.033-.3.35.142l.617,1.059c-.1-.347,0,.313-.034-.462-.151-3.075-4.952-3.093-4.8,0Z"/><path class="c" d="M142.782,160.266c6.523,1.385,12.873,3.977,19.063,6.405q2.127.834,4.241,1.7c.269.11.536.222.8.333.055.022.507.212.244.1-.325-.137.363.156.422.181q1.362.588,2.7,1.23a60.887,60.887,0,0,1,10.8,6.625,42.654,42.654,0,0,1,8.615,8.542,53.53,53.53,0,0,1,5.557,9.916,123.5,123.5,0,0,1,6.714,20.215c3.44,14,5.587,28.374,7.606,42.638a230.613,230.613,0,0,1,2.468,23.666c.273,7.265.679,14.671-1.438,21.6-1.9,6.206-6.28,12.11-12.585,14.355-7.04,2.5-15.191.93-21.984-1.629a39.52,39.52,0,0,1-5.394-2.466c-2.7-1.51-5.122,2.635-2.423,4.144a45.238,45.238,0,0,0,23.892,5.884,23.861,23.861,0,0,0,11.849-3.616,26.138,26.138,0,0,0,8.1-8.246c3.538-5.723,4.818-12.606,4.932-19.252a187.878,187.878,0,0,0-1.673-27.5c-1.992-15.326-4.292-30.679-7.561-45.79a154.2,154.2,0,0,0-5.741-19.864c-2.789-7.714-6.355-15.278-12.129-21.23-6.1-6.287-13.775-10.833-21.8-14.177a207.745,207.745,0,0,0-19.893-7.313c-1.355-.408-2.72-.788-4.105-1.082-3.013-.639-4.3,3.987-1.276,4.629Z"/><rect class="a" x="77.555" y="168.642" width="119.217" height="96.011" transform="translate(-106.231 297.325) rotate(-76)"/><path class="d" d="M103.97,151.345,76.164,262.872l10.62,2.648c8.146-32.674,24.7-99.072,28.841-115.676l-10.62-2.648Z"/><path class="c" d="M89.305,265.327l12.108-48.563,12.267-49.2q2.129-8.541,4.259-17.082c.747-3-3.881-4.277-4.629-1.276q-4.585,18.393-9.172,36.787Q97.6,212.239,91.051,238.482q-3.186,12.785-6.374,25.569c-.748,3,3.88,4.276,4.628,1.276Z"/><path class="c" d="M102.449,147.528l-2.4,9.626-5.9,23.66L86.7,210.685l-7.045,28.256-4.692,18.817c-.283,1.137-.617,2.275-.853,3.423a3.515,3.515,0,0,0,2.461,4.266c.421.133.865.216,1.294.323l17.826,4.445,28.954,7.219,27.942,6.966c4.926,1.229,9.84,2.556,14.79,3.688a3.57,3.57,0,0,0,4.5-2.321c.072-.222.114-.458.17-.684l1.239-4.97,5.219-20.934,7.248-29.068,7.325-29.379,5.452-21.865,1.413-5.67c.091-.362.2-.724.272-1.09a3.512,3.512,0,0,0-2.47-4.261c-4.315-1.344-8.844-2.205-13.227-3.3l-27.342-6.817-29.317-7.31-19.152-4.775c-2.117-.528-4.859-1.4-6.018,1.309a2.481,2.481,0,0,0,.861,3.284,2.416,2.416,0,0,0,3.283-.862c-.642,1.5-2.072.131-1.295.426a5.37,5.37,0,0,0,.591.147l2.26.564,8.2,2.044,25.924,6.463,29.272,7.3,20.916,5.214,2.609.651a3.845,3.845,0,0,0,1.19.3,5.385,5.385,0,0,0-.906-1.677c-.06.066-.053.254-.084.338a14.192,14.192,0,0,0-.4,1.586l-4.052,16.254L184.4,215.707l-7.377,29.585-6.3,25.253-3.322,13.324a1.864,1.864,0,0,0-.117.469c.053.843,1.317-1.22,1.7-.8-.122-.134-.7-.174-.869-.216l-5.931-1.479L138.73,276l-29.545-7.366-23.922-5.965-6.339-1.58c-.229-.057-.882-.354-1.116-.278.193-.063.66,2,.929,1.663.063-.08.058-.274.092-.369.488-1.387.728-2.92,1.083-4.345l2.081-8.346L88.205,224.5l7.368-29.549,6.729-26.988,4.192-16.816.583-2.338C107.825,145.807,103.2,144.528,102.449,147.528Z"/><path class="c" d="M163.351,235.633l-48.376-12.061c-3-.747-4.277,3.88-1.277,4.628l48.377,12.062c3,.747,4.276-3.88,1.276-4.629Z"/><path class="d" d="M167.582,216.628,119.4,204.614l7.509-30.117,48.186,12.015Z"/><path class="c" d="M168.22,214.314,120.034,202.3l1.676,2.952,6.584-26.408.925-3.708-2.952,1.676,48.186,12.014-1.676-2.952-6.584,26.408-.925,3.708c-.747,3,3.881,4.277,4.629,1.276l6.584-26.408.925-3.708a2.437,2.437,0,0,0-1.677-2.952l-48.186-12.015a2.438,2.438,0,0,0-2.953,1.676l-6.584,26.409-.925,3.708a2.437,2.437,0,0,0,1.677,2.952l48.186,12.015C169.942,219.69,171.221,215.062,168.22,214.314Z"/><path class="a" d="M170.331,245.643a18.942,18.942,0,0,0-8.552-.53c-2.576.617-4.482,3.225-3.539,5.7a7.5,7.5,0,0,0,3.288,3.3,98.066,98.066,0,0,0,17.9,8.974q-10.871-1.466-21.742-2.926a16.507,16.507,0,0,0-4.613-.183,5.562,5.562,0,0,0-3.9,2.245,5.869,5.869,0,0,0,.332,6.089,6.761,6.761,0,0,0,2.774,2.175l-1.755.257a5.013,5.013,0,0,0-4.145,5.109,6.238,6.238,0,0,0,3.526,5.444,21.1,21.1,0,0,0,5.1,1.773c-.775.871-1.268,1.427-1.268,1.427a5.183,5.183,0,0,0-.276,5.9c2.6,4.446,10.345,5.524,15.923,6.325a24.456,24.456,0,0,0,11.208-.943c5.686-1.91,9.255-4.24,12.463-10.3,2.174-4.108,2.79-8.736,2.864-13.628a31.182,31.182,0,0,0-1.83-10.522,13.6,13.6,0,0,0-4.606-6.083c-1.5-1.121-3.266-2.338-5.19-3.54A51.064,51.064,0,0,0,170.331,245.643Z"/><path class="c" d="M177.231,259.654a99.281,99.281,0,0,1-14.1-7.359c-1.109-.7-3.363-1.872-2.584-3.495.626-1.3,2.243-1.513,3.293-1.56,3.977-.178,8.024,1.159,11.66,2.639a57.691,57.691,0,0,1,12.112,6.96c3.731,2.72,5.1,6.854,5.684,11.3a31.227,31.227,0,0,1-1.044,13.041,18.781,18.781,0,0,1-6.2,9.312,21.91,21.91,0,0,1-10.765,4,38.6,38.6,0,0,1-14.015-1.768,12.317,12.317,0,0,1-4.754-2.348c-.954-.87-2.174-2.825-1.085-4.172a2.474,2.474,0,0,0,0-3.4,2.419,2.419,0,0,0-3.4,0c-3.595,4.448-1.089,10.07,3.41,12.663,4,2.3,8.8,2.95,13.3,3.575a28.97,28.97,0,0,0,16.375-2.474,21.234,21.234,0,0,0,9.62-9.162c2.8-4.975,3.732-10.865,3.57-16.523-.155-5.41-1.4-11.391-5.129-15.5a33.323,33.323,0,0,0-6.863-5.223,54.847,54.847,0,0,0-7.274-3.942c-4.544-2.027-9.561-3.807-14.6-3.787-2.715.012-5.459.68-7.255,2.866a6.446,6.446,0,0,0,.083,8.451c1.973,2.337,5.243,3.86,7.867,5.327a100.36,100.36,0,0,0,9.669,4.729,2.483,2.483,0,0,0,3.284-.861,2.418,2.418,0,0,0-.861-3.284Z"/><path class="c" d="M177.594,260.442q-9.957-1.338-19.913-2.677c-2.864-.38-5.965-.546-8.483,1.146a7.216,7.216,0,0,0-2.992,7.38c.7,4.485,4.721,6.661,8.751,7.72,3.095.813,6.233,1.48,9.356,2.174q4.712,1.046,9.43,2.057c3.012.647,4.3-3.979,1.276-4.628-5.328-1.144-10.657-2.294-15.963-3.541-2.223-.523-4.868-.944-6.753-2.315-1.211-.88-2.033-2.966-1.058-4.32,1.148-1.594,3.885-1.187,5.515-.992,6.529.779,13.041,1.748,19.558,2.624a2.484,2.484,0,0,0,2.952-1.676,2.416,2.416,0,0,0-1.676-2.952Z"/><path class="c" d="M149.886,268.434a7.459,7.459,0,0,0-5.907,7.247,8.877,8.877,0,0,0,5.194,7.937c4.572,2.227,10.023,2.716,14.984,3.636,2.121.394,4.241.8,6.366,1.17a2.469,2.469,0,0,0,2.952-1.676A2.421,2.421,0,0,0,171.8,283.8c-4.336-.757-8.658-1.6-12.987-2.4-2.782-.512-6.418-.9-8.658-2.8-1.985-1.683-1.841-5,1.008-5.538a2.423,2.423,0,0,0,1.676-2.953,2.451,2.451,0,0,0-2.952-1.676Z"/><path class="a" d="M72.535,230.414a42.944,42.944,0,0,1,17.771-4.527c2.212-.012,4.544.177,6.38,1.41a4.251,4.251,0,0,1,1.942,4.8,3.9,3.9,0,0,1-2.723,2.715,43.31,43.31,0,0,0-4.23,1.349,50.736,50.736,0,0,0-9.849,4.422l-.637,4.048a132.008,132.008,0,0,1,13.405,2.923,30.667,30.667,0,0,1,7.022,2.739,7.693,7.693,0,0,1,3.686,3.242,5.749,5.749,0,0,1,.663,3.449,3.849,3.849,0,0,1-2.387,3.181,7.011,7.011,0,0,1-4.587.477c-1.284-.292-2.578-.607-3.882-.93,3.737,1.859,3.985,3.276,4.653,5.4a4.741,4.741,0,0,1-.48,3.588,5.625,5.625,0,0,1-5.4,1.712c-1.559-.4-3.022-.75-4.493-1.072,1.023.733,1.729,1.237,1.729,1.237,3.113,2.226,2.313,7.394-.356,8.252-2.17.7-5.732.085-9.532-.209-.4,5.282-5.622,10.465-7.455,11.5-1.14.646-4.716,2.243-7.474,2.195-5.773-.1-10.565-4.078-13.763-8.874-1.993-2.988-2.1-8.114-.4-11.28A68.6,68.6,0,0,0,58.075,257c1.525-6.077,5.161-17.16,8.844-21.631Z"/><path class="c" d="M73.747,232.486a45.015,45.015,0,0,1,12.128-3.85,27.529,27.529,0,0,1,6.1-.307c1.407.092,3.424.419,4.187,1.79a1.682,1.682,0,0,1-.576,2.281,18.58,18.58,0,0,1-2.853.85c-.948.315-1.883.665-2.82,1.011a63.381,63.381,0,0,0-9.3,4.25c-2.691,1.518-.274,5.666,2.422,4.145a55.378,55.378,0,0,1,8.334-3.832c1.711-.632,3.431-1.164,5.172-1.7a6.376,6.376,0,0,0,3.983-3.343c1.836-3.92-.509-7.869-4.283-9.389-3.594-1.447-7.913-.985-11.644-.386a49.375,49.375,0,0,0-13.275,4.334,2.42,2.42,0,0,0-.861,3.283,2.452,2.452,0,0,0,3.284.861Z"/><path class="c" d="M65.222,233.668c-3.709,4.6-5.748,10.565-7.552,16.115-.894,2.751-1.588,5.548-2.388,8.325a65.021,65.021,0,0,1-4.076,10.627,27.05,27.05,0,0,0-2.154,4.8,14.653,14.653,0,0,0,3.36,13.734c4.2,5.117,10.725,8.693,17.44,6.965a16.719,16.719,0,0,0,7.562-3.956,21.1,21.1,0,0,0,5.819-9.209c.853-2.975-3.777-4.245-4.628-1.276a16,16,0,0,1-4.154,6.666c-.4.4-.81.784-1.238,1.151-.583.5.193-.12-.134.11-.125.088-.249.177-.379.257a13.273,13.273,0,0,1-2.691,1.195,10.387,10.387,0,0,1-7.713-.107,17.084,17.084,0,0,1-6.248-4.9,9.94,9.94,0,0,1-2.7-6.65c-.013-2.968,1.475-5.173,2.681-7.787a73.133,73.133,0,0,0,3.622-9.47c.771-2.548,1.378-5.141,2.165-7.686a91.543,91.543,0,0,1,3.1-8.661c.577-1.36,1.207-2.7,1.911-4,.29-.536.593-1.065.917-1.58.3-.483.682-1.034.865-1.261a2.474,2.474,0,0,0,0-3.395,2.419,2.419,0,0,0-3.394,0Z"/><path class="c" d="M80.551,246.945a127.6,127.6,0,0,1,12.8,2.758,32.94,32.94,0,0,1,5.349,1.808c1.391.647,3.22,1.345,4.167,2.607.748,1,1.189,2.805.125,3.641-1.584,1.245-3.832.469-5.544.056-4.645-1.123-9.263-2.36-13.987-3.114a2.474,2.474,0,0,0-2.952,1.676,2.418,2.418,0,0,0,1.676,2.952c4.426.707,8.76,1.835,13.11,2.9,2.032.5,4.129,1.164,6.243.938a8.04,8.04,0,0,0,5.473-2.7c2.629-3.263,1.282-8.272-1.807-10.72-2.843-2.251-6.517-3.549-9.972-4.509a124.665,124.665,0,0,0-13.4-2.924,2.474,2.474,0,0,0-2.952,1.677,2.418,2.418,0,0,0,1.676,2.952Z"/><path class="c" d="M95.858,262.929a3.566,3.566,0,0,1,1.194,1.584,13.975,13.975,0,0,1,.452,1.45c-.079-.344.006.091.006.239a4.779,4.779,0,0,1-.027.687c.041-.285-.123.417-.121.407.053-.23-.146.035.033-.091a5.308,5.308,0,0,1-.95.659,3.745,3.745,0,0,1-2.7.038,128.917,128.917,0,0,0-14.708-2.708,2.411,2.411,0,0,0-2.4,2.4,2.461,2.461,0,0,0,2.4,2.4c2.941.383,5.872.855,8.776,1.46,2.939.613,6.147,1.982,9.156,1.281a7.942,7.942,0,0,0,4.012-2.337,6.141,6.141,0,0,0,1.331-4.2,9.54,9.54,0,0,0-4.03-7.418,2.417,2.417,0,0,0-3.283.861,2.456,2.456,0,0,0,.861,3.284Z"/><path class="c" d="M89.91,272.65c-.532-.394.036.057.138.161.074.076.146.156.215.237q-.312-.422-.088-.109c.093.155.185.314.28.467.313.5-.094-.374.039.061.06.2.127.388.175.588.023.1.044.2.061.3.042.263.034.2-.024-.186a4.247,4.247,0,0,0,0,1.05c-.017.433.122-.579-.024.088-.03.14-.067.28-.109.418-.027.09-.057.18-.089.268q-.139.357.082-.187a2.584,2.584,0,0,0-.259.476c-.287.484.079-.035.068-.061a2.445,2.445,0,0,1-.355.363c.327-.24.39-.29.19-.147-.068.045-.138.088-.21.128-.294.243.566-.139.051-.026-.173.038-.343.1-.518.13-.1.021-.21.04-.315.056q.547-.069.138-.024c-.426.024-.848.053-1.275.052-1.054,0-2.107-.092-3.156-.189a70.79,70.79,0,0,0-7.245-.474,2.4,2.4,0,0,0,0,4.8,61.769,61.769,0,0,1,6.56.409,24.994,24.994,0,0,0,5.452.164,6.07,6.07,0,0,0,4.687-2.647,7.459,7.459,0,0,0,1.122-4.647,7.642,7.642,0,0,0-3.174-5.661,2.406,2.406,0,0,0-3.283.861,2.468,2.468,0,0,0,.861,3.283Z"/></svg>